<?xml version="1.0" standalone="no"?><!DOCTYPE svg PUBLIC "-//W3C//DTD SVG 1.1//EN" "http://www.w3.org/Graphics/SVG/1.1/DTD/svg11.dtd"><svg t="1573795648356" class="icon" viewBox="0 0 1024 1024" version="1.1" xmlns="http://www.w3.org/2000/svg" p-id="7091" xmlns:xlink="http://www.w3.org/1999/xlink" width="36" height="36"><defs><style type="text/css"></style></defs><path d="M355.6 100l4.8-12c2.4-6 3.6-12.4 3.6-18.8 0-8.8-2.4-17.6-6.8-25.2l-7.6-13.2h556c23.6 0 42.8 19.2 42.8 42.8V100H355.6zM111.2 100l-4.8-12c-2.4-6-3.6-12.4-3.6-18.8 0-8.8 2.4-17.6 6.8-25.2l7.6-13.2c-23.6 0-39.6 19.2-39.6 42.8V100h33.6z" fill="#F68F6F" p-id="7092"></path><path d="M51.6 116.8h920.8v13.2H51.6zM151.2 102.8c-18.4 0-33.6-15.2-33.6-33.6s15.2-33.6 33.6-33.6c18.4 0 33.6 15.2 33.6 33.6s-15.2 33.6-33.6 33.6z m0-54c-11.2 0-20.4 9.2-20.4 20.4s9.2 20.4 20.4 20.4 20.4-9.2 20.4-20.4-9.2-20.4-20.4-20.4zM232 102.8c-18.4 0-33.6-15.2-33.6-33.6 0-18.4 15.2-33.6 33.6-33.6s33.6 15.2 33.6 33.6-14.8 33.6-33.6 33.6z m0-54c-11.2 0-20.4 9.2-20.4 20.4s9.2 20.4 20.4 20.4 20.4-9.2 20.4-20.4-9.2-20.4-20.4-20.4zM313.2 102.8c-18.4 0-33.6-15.2-33.6-33.6s15.2-33.6 33.6-33.6c18.4 0 33.6 15.2 33.6 33.6s-15.2 33.6-33.6 33.6z m0-54c-11.2 0-20.4 9.2-20.4 20.4s9.2 20.4 20.4 20.4 20.4-9.2 20.4-20.4c-0.4-11.2-9.2-20.4-20.4-20.4zM760.8 864.4h-63.2l-43.2-98.8 103.2-40.4V692l-103.2-40.4 44.4-101.6-29.6-29.6-101.6 44-40.4-102.8h-33.2l-40.4 102.8-101.6-44-23.6 23.6 44.4 101.2-103.2 40.4v33.2l103.2 40.4-45.6 105.2H267.6v-13.2h50.8l36.8-84.4-98.8-38.8v-51.2l98.8-38.8-42.4-96.8 5.2-5.6 30.8-30.8 97.2 42 38.8-98.4H536l38.8 98.4 97.2-42 42.4 42.4L672 644l98.8 39.2v51.2l-98.8 38.4 34.4 78.4h54.4z" fill="#4A555F" p-id="7093"></path><path d="M905.6 864.4h-96.4v-13.2h96.4c33.2 0 60.4-27.2 60.4-60.4V73.6c0-10-2.4-20-7.2-28.8-2.8-5.2-6.4-9.6-10.4-14-2.8-2.8-5.6-5.2-8.8-7.6-3.2-2-6.8-4-10-5.6-7.6-3.2-15.2-4.8-23.6-4.8H118.4c-8 0-16 1.6-23.6 4.8-3.6 1.6-7.2 3.2-10.4 5.6-3.2 2.4-6.4 4.8-8.8 7.2-4.4 4.4-7.6 8.8-10.4 14-4.8 8.8-7.2 18.8-7.2 28.8v717.6c0 33.2 27.2 60.4 60.4 60.4h96v13.2h-96c-40.4 0-73.6-32.8-73.6-73.6V73.6c0-12.4 3.2-24.4 8.8-35.2 3.2-6 7.6-12 12.8-16.8 3.2-3.2 6.8-6 10.8-8.8 4-2.8 8.4-4.8 12.4-6.8C98.8 2 108.4 0 118.4 0h787.2c10 0 19.6 2 28.8 6 4.4 1.6 8.4 4 12.4 6.8s7.6 6 10.8 9.2c5.2 5.2 9.2 10.8 12.8 16.8 5.6 10.8 8.8 22.8 8.8 34.8v717.6c0 40-33.2 73.2-73.6 73.2z" fill="#4A555F" p-id="7094"></path><path d="M542.4 962.4h-51.2l-38.8-98.8-97.6 42.4-4-4.8-38-38 42.4-97.2-98.8-38v-51.2l98.4-38.8-42-96.8 5.2-5.6 30.8-30.8 97.2 42.4 38.8-98.4H536l38.8 98.4 97.2-42.4 42.4 42.4L672 644l98.8 38.8v51.2l-98.8 38.8 42.4 97.2-5.6 5.2-30.8 30.8-96.8-42-38.8 98.4z m-42-13.2h33.2l40.4-103.2 101.6 44.4 23.6-23.6-44.4-101.2 103.2-40.4V692l-103.2-40.4 44.4-101.2-29.6-29.6-101.6 44-40.4-102.8h-33.2l-40.4 102.8-101.6-44-23.2 23.2 44 101.6-102.8 40.4v33.2l102.8 40.4-44 101.6 29.6 29.6 101.2-44.4 40.4 102.8z m12.8-154.4c-30.8 0-59.6-16.4-75.6-43.2-8-13.2-12.4-28.8-12.4-44.4 0-48.4 39.2-87.6 87.6-87.6 15.2 0 30.4 4 43.6 11.6 27.2 15.6 44.4 44.8 44.4 76 0 48.4-39.2 87.6-87.6 87.6z m0-162.4c-41.2 0-74.4 33.6-74.4 74.4 0 13.2 3.6 26.4 10.4 37.6 13.2 22.8 38 36.8 64 36.8 41.2 0 74.4-33.2 74.4-74.4 0-26.8-14.4-51.6-37.6-64.8-11.2-6-24-9.6-36.8-9.6z" fill="#4A555F" p-id="7095"></path><path d="M510.8 934l-42.8-108L361.6 872l-14.8-14.8 46.4-106.4-108-42.4v-12l108-42.4-46.4-106.4 8.4-8.4 106.4 46.4 42.4-108h12l42.4 108 106.4-46.4 14.8 14.8-45.6 106 108 42.8v12l-108 42.4 46.4 106.4-8.4 8.8-106.4-46.4-42.4 108h-12.4z m2.4-330c-56.8 0-103.2 46.4-103.2 103.2 0 18.4 5.2 36.8 14.4 52.4 18.4 31.2 52.4 50.4 88.8 50.4 56.8 0 103.2-46.4 103.2-103.2 0-36.8-20-71.2-52-89.6-15.6-8.4-33.2-13.2-51.2-13.2z" fill="#FFD552" p-id="7096"></path><path d="M513.6 1024h-7.6l0.4-13.2h12.8l0.4 13.2h-6z m19.2-0.4l-0.8-13.2c4.4-0.4 8.8-0.8 12.8-1.2l1.2 13.2c-4 0.4-8.4 0.8-13.2 1.2z m-40.4-0.4c-4.4-0.4-8.8-0.8-13.6-1.2l1.6-13.2c4.4 0.4 8.4 0.8 12.8 1.2l-0.8 13.2z m67.2-2.4l-2-13.2c4.4-0.8 8.4-1.2 12.8-2l2.4 12.8c-4 0.8-8.4 1.6-13.2 2.4z m-94-0.4l-13.2-2.4 2.4-12.8c4.4 0.8 8.4 1.6 12.8 2.4l-2 12.8z m120.8-4.8l-3.2-12.8c4.4-0.8 8.4-2 12.4-3.2l3.6 12.8c-4 1.2-8.4 2.4-12.8 3.2z m-147.2-0.4c-4.4-1.2-8.8-2-13.2-3.6l3.6-12.8c4 1.2 8.4 2.4 12.4 3.2l-2.8 13.2z m173.2-6.8l-4-12.4c4-1.2 8-2.8 12-4.4l4.8 12.4c-4.4 1.6-8.8 3.2-12.8 4.4z m-199.2-0.4c-4.4-1.6-8.4-2.8-12.8-4.4l4.8-12.4c4 1.6 8 2.8 12 4.4l-4 12.4z m224.4-8.8l-5.2-12c4-1.6 8-3.6 11.6-5.2l5.6 12c-4 1.6-8 3.2-12 5.2z m-249.6-0.8c-4-1.6-8.4-3.6-12.4-5.6l5.6-12c4 2 8 3.6 11.6 5.2l-4.8 12.4z m274-10.8L656 976c4-2 7.6-4 11.2-6.4l6.8 11.6c-4.4 2-8.4 4.4-12 6.4z m-298.4-1.2c-4-2-8-4.4-11.6-6.8l6.8-11.2c3.6 2 7.6 4.4 11.2 6.4l-6.4 11.6z m321.6-12.4l-7.2-11.2 10.8-7.2 7.6 10.8c-3.6 2.8-7.6 5.2-11.2 7.6z m-344.8-1.2c-3.6-2.4-7.6-4.8-11.2-7.6l7.6-10.8 10.8 7.2-7.2 11.2z m366.8-14.4l-8-10.4c3.6-2.8 6.8-5.2 10-8l8.4 10c-3.2 2.8-6.8 5.6-10.4 8.4z m-388.8-1.2c-3.6-2.8-7.2-5.6-10.4-8.4l8.4-10c3.2 2.8 6.8 5.6 10 8l-8 10.4z m409.6-16l-8.8-9.6c3.2-2.8 6.4-6 9.2-8.8l9.2 9.2c-3.2 3.2-6.4 6-9.6 9.2z m-430.4-1.6c-3.2-3.2-6.4-6-9.6-9.2l9.2-9.2c3.2 3.2 6 6 9.2 8.8l-8.8 9.6z m449.6-17.2l-9.6-8.8c2.8-3.2 6-6.4 8.8-9.6l10 8.4c-3.2 3.2-6.4 6.4-9.2 10z m-468.4-1.6c-3.2-3.2-6-6.8-8.8-10l10-8.4 8.4 9.6-9.6 8.8z m485.6-19.2l-10.4-8c2.8-3.2 5.2-6.8 7.6-10.4l10.8 7.6c-2.4 3.6-5.2 7.2-8 10.8zM261.2 900c-2.8-3.6-5.6-7.2-8-10.8l10.8-7.6c2.4 3.6 5.2 6.8 7.6 10.4l-10.4 8z m519.2-20.4l-11.2-7.2c2.4-3.6 4.8-7.2 6.8-10.8l11.2 6.8c-2 4-4.4 7.6-6.8 11.2z m-534.8-1.6c-2.4-3.6-4.8-7.6-7.2-11.6l11.2-6.8c2 3.6 4.4 7.2 6.8 11.2l-10.8 7.2z m548.4-21.6l-11.6-6.4c2-3.6 4-7.6 6-11.6l12 5.6c-2 4.8-4 8.8-6.4 12.4zM232 854.8l-6-12 12-5.6c2 4 4 7.6 6 11.6l-12 6z m574-22.4l-12-5.2 4.8-12 12.4 4.8c-1.6 4-3.6 8-5.2 12.4z m-585.6-2c-1.6-4-3.6-8.4-5.2-12.4l12.4-4.8 4.8 12-12 5.2z m595.2-23.2l-12.4-4.4c1.2-4 2.8-8.4 4-12.4l12.8 3.6c-1.6 4.4-2.8 8.8-4.4 13.2z m-604.8-2c-1.6-4.4-2.8-8.4-4-12.8l12.8-3.6c1.2 4 2.4 8.4 3.6 12.4l-12.4 4z m612.4-24l-12.8-3.2c1.2-4 2-8.4 2.8-12.8l12.8 2.4c-0.8 4.8-1.6 9.2-2.8 13.6z m-619.6-2c-1.2-4.4-2-8.8-2.8-13.2l12.8-2.4c0.8 4.4 1.6 8.4 2.8 12.8l-12.8 2.8z m-5.2-26.4c-0.8-4.4-1.2-8.8-1.6-13.2l13.2-1.2c0.4 4.4 0.8 8.4 1.6 12.8l-13.2 1.6z m-2.8-26.8c-0.4-4.4-0.4-8.8-0.4-13.6l13.2-0.4c0 4.4 0.4 8.8 0.4 12.8l-13.2 1.2z m12.8-26.8l-13.2-0.4c0-4.4 0.4-9.2 0.4-13.6l13.2 0.8c0 4.4-0.4 8.8-0.4 13.2z m1.6-26l-13.2-1.2c0.4-4.4 1.2-8.8 1.6-13.2l13.2 2c-0.8 4-1.2 8.4-1.6 12.4z m3.6-25.6l-12.8-2.4c0.8-4.4 1.6-8.8 2.8-13.2l12.8 3.2c-0.8 4-2 8.4-2.8 12.4z m597.2-12l-0.8-3.2 12.8-3.2 0.8 3.2-12.8 3.2z m-591.2-12.8l-12.8-3.6c1.2-4.4 2.4-8.8 4-12.8l12.4 4c-1.2 4-2.4 8-3.6 12.4z m587.2-2.8c-1.2-4-2.4-8.4-4-12.4l12.4-4.4c1.6 4.4 2.8 8.4 4 12.8l-12.4 4z m-579.2-22l-12.4-4.8c1.6-4.4 3.2-8.4 5.2-12.4l12 5.2-4.8 12z m570.8-2.4l-4.8-12 12-5.2c1.6 4 3.6 8.4 5.2 12.4l-12.4 4.8z m-560.4-21.6l-12-5.6 6-12 11.6 6c-2 4-4 8-5.6 11.6z m550.4-2.4c-2-4-4-7.6-6-11.6l11.6-6.4 6 12-11.6 6z m-538.4-20.4l-11.6-6.8c2.4-4 4.8-7.6 7.2-11.6l11.2 7.2c-2.4 4-4.8 7.6-6.8 11.2z m526-2c-2.4-3.6-4.4-7.2-6.8-10.8l11.2-7.2c2.4 3.6 4.8 7.6 7.2 11.6l-11.6 6.4z m-512-19.6l-10.8-7.6c2.4-3.6 5.2-7.2 8-10.8l10.4 8c-2.4 3.2-5.2 6.8-7.6 10.4z m497.6-2c-2.4-3.6-5.2-6.8-7.6-10.4l10.4-8c2.8 3.6 5.6 7.2 8 10.8l-10.8 7.6zM280 509.2l-10-8.4c2.8-3.6 6-6.8 8.8-10l9.6 8.8c-2.8 2.8-6 6-8.4 9.6z m466-2c-2.8-3.2-5.6-6.4-8.8-9.6l9.6-9.2c3.2 3.2 6 6.8 8.8 10l-9.6 8.8z m-448.8-17.2l-9.2-9.2c3.2-3.2 6.4-6.4 9.6-9.2l8.8 9.6c-2.8 2.8-6 5.6-9.2 8.8z m431.2-2c-3.2-3.2-6-6-9.2-8.8l8.8-9.6c3.2 3.2 6.4 6 9.6 9.2l-9.2 9.2z m-412-15.6l-8.4-10c3.6-2.8 6.8-5.6 10.4-8.4l8 10.4c-3.6 2.4-6.8 5.2-10 8z m392.8-1.6c-3.2-2.8-6.8-5.6-10-8l8-10.4c3.6 2.8 7.2 5.6 10.4 8.4l-8.4 10z m-372.4-14.4l-7.6-10.8c3.6-2.8 7.2-5.2 11.2-7.6l7.2 11.2c-4 2.4-7.6 4.8-10.8 7.2z m351.6-1.2l-10.8-7.2 7.2-11.2c3.6 2.4 7.6 4.8 11.2 7.6l-7.6 10.8z m-330-12.8l-6.8-11.2c4-2.4 7.6-4.4 11.6-6.8l6.4 11.6c-4 2-7.6 4.4-11.2 6.4z m308.4-1.2c-3.6-2-7.6-4.4-11.2-6.4l6-11.6c4 2 8 4.4 12 6.4l-6.8 11.6z m-285.6-10.8l-5.6-12c4-2 8-4 12.4-5.6l5.2 12c-4.4 2-8.4 3.6-12 5.6z m262.4-1.2c-4-2-8-3.6-12-5.2l5.2-12c4 1.6 8.4 3.6 12.4 5.6l-5.6 11.6z m-238.8-9.2l-4.8-12.4c4-1.6 8.4-3.2 12.8-4.4l4 12.4c-4 1.6-8 2.8-12 4.4z m215.2-0.8c-4-1.6-8-2.8-12.4-4.4l4-12.4c4.4 1.2 8.4 2.8 12.8 4.4l-4.4 12.4z m-190.8-7.2l-3.6-12.8 13.2-3.6 3.2 12.8c-4.4 1.2-8.8 2.4-12.8 3.6z m166-0.8c-4-1.2-8.4-2.4-12.4-3.2l2.8-12.8c4.4 1.2 8.8 2 13.2 3.2l-3.6 12.8z m-140.8-5.2l-2.4-12.8 13.2-2.4 2 13.2c-4.4 0.4-8.8 0.8-12.8 2z m115.6-0.8c-4.4-0.8-8.4-1.6-12.8-2l2-13.2c4.4 0.8 8.8 1.2 13.2 2l-2.4 13.2z m-90-3.2l-1.6-13.2c4.4-0.4 8.8-0.8 13.6-1.2l0.8 13.2c-4.4 0.4-8.8 0.8-12.8 1.2z m64.4-0.4c-4.4-0.4-8.4-0.8-12.8-1.2l0.8-13.2c4.4 0.4 8.8 0.8 13.6 1.2l-1.6 13.2z m-38.8-1.6l-0.4-13.2h13.6l-0.4 13.2h-12.8z" fill="#4A555F" p-id="7097"></path><path d="M820.8 650.4l-45.2-27.2 6.8-11.2 33.6 20 19.6-35.6 11.6 6.4z" fill="#4A555F" p-id="7098"></path><path d="M748.4 370c-28.8 0-56-14-72.8-37.2-9.6-13.6-26-21.2-42.8-20l-374 20.4h-4c-13.6 0-26.4-5.2-36.4-14.8-9.6-9.6-15.2-22.8-15.2-36.4 0-29.6 25.6-53.6 55.6-51.2l371.2 20.4h4c16 0 30.8-8 40-21.2 16.8-24.4 44.4-39.2 74-39.2 36.4 0 68.8 21.6 82.8 55.2l3.6 9.2h-82c-5.6 0-10.4 3.6-12.4 8.8l-7.2 22.4c-1.2 4-0.8 8 2 11.6 2.4 3.2 6.4 5.2 10.4 5.2l89.6-0.4-3.6 8.8c-12.4 35.2-46 58.4-82.8 58.4z m-111.6-70.4c19.6 0 38.4 9.6 49.6 25.6 14.4 20 37.6 31.6 62 31.6 28 0 54-15.6 67.2-40h-69.6c-8.4 0-16.4-4-21.2-10.8-4.8-6.8-6.4-15.2-3.6-23.6l7.2-22.4c3.6-10.8 13.6-18 24.8-18h61.6c-13.6-23.2-38.4-38-66-38-25.2 0-48.8 12.4-63.2 33.2-12.4 18.4-33.6 28.8-56 26.8l-371.2-20h-3.2c-21.2 0-38 17.2-38 38.4 0 10.4 4 20 11.2 27.2 8 8 18.8 12 30 11.2l374-20.4c1.2-0.8 2.8-0.8 4.4-0.8z" fill="#4A555F" p-id="7099"></path><path d="M748.4 341.2c-19.6 0-38-9.6-49.2-25.2-14.4-20-37.6-32-62.4-32-2 0-4 0-6 0.4l-374 20.8h-2c-6 0-11.6-2.4-16-6.8s-6.8-10-6.8-16c0-12.4 10.4-22.8 22.8-22.8h2l372 20.4c2 0 4 0.4 6 0.4 25.6 0 49.2-12.8 63.6-34 11.2-16.8 30-26.8 50.4-26.8 10.4 0 20.4 2.4 28.8 7.2h-24.4c-18 0-34 11.6-39.6 28.8l-7.2 22c-4 12.8-2 26.4 6 37.2 7.6 10.8 20.4 17.2 33.6 17.2h34.8c-9.6 6-20.8 9.2-32.4 9.2z" fill="#E0E0E0" p-id="7100"></path><path d="M263.6 302.8c-12.4 0-22.4-10-22.4-22.4s10-22.4 22.4-22.4c12.4 0 22.4 10 22.4 22.4s-10.4 22.4-22.4 22.4z m0-31.2c-4.8 0-9.2 4-9.2 9.2s4 9.2 9.2 9.2 9.2-4 9.2-9.2-4.4-9.2-9.2-9.2z" fill="#4A555F" p-id="7101"></path></svg>